With: Inger Nilsson, Frida Hallgren and Paprika Steen,
Op het idyllische en mystieke Zweedse eiland Gotland volgen de moordzaken elkaar op. Inspecteur Robert Anders en zijn team gaan tot het uiterste om de zaken tot op de bodem uit te zoeken. Maar of het nu gaat om een slachtoffer dat is vermoord volgens een oud ritueel of om een smokkeloperatie aan de Zweedse kust; de echte hoofdrol is weggelegd voor de adembenemende natuur van Gotland.

01 Den du nicht siehst (Die je niet ziet)
02 Näher als du denkst (Dichterbij dan je denkt)
03 An einem einsamen Ort (De goden verzoeken)
04 Sommerzeit (In die heerlijke zomertijd )
05 Der sterbende Dandy

------------------------ Dutch Friends ------------------------
---------------------------------------------------------------
- Bezoek ook eens mijn vrienden op:  http://www.Film-Test.nl --
----- voor mijn Nederlandse Sync. ondertitels ---- en meer ----
------- http://www.Film-Test.nl ---- voor Films en meer -------
---------------------------------------------------------------

General:

Complete name                    : Der Kommissar Und Das Meer\01 Den du nicht siehst.avi
Format                           : AVI
Format/Info                      : Audio Video Interleave
File size                        : 1.27 GiB
Duration                         : 1h 29mn
Overall bit rate                 : 2 038 Kbps

Video:

Format                           : MPEG-4 Visual
Format profile                   : Simple@L3
Format settings, BVOP            : No
Format settings, QPel            : No
Format settings, GMC             : No warppoints
Format settings, Matrix          : Default (H.263)
Codec ID                         : XVID
Codec ID/Hint                    : XviD
Duration                         : 1h 29mn
Bit rate                         : 1 803 Kbps
Width                            : 652 pixels
Height                           : 352 pixels
Display aspect ratio             : 1.852
Frame rate                       : 25.000 fps
Color space                      : YUV
Chroma subsampling               : 4:2:0
Bit depth                        : 8 bits
Scan type                        : Progressive
Compression mode                 : Lossy
Bits/(Pixel*Frame)               : 0.314
Stream size                      : 1.13 GiB (88%)
Writing library                  : XviD 1.1.2 (UTC 2006-11-01)

Audio:

Format                           : AC-3
Format/Info                      : Audio Coding 3
Format profile                   : Dolby Digital
Mode extension                   : CM (complete main)
Codec ID                         : 2000
Duration                         : 1h 29mn
Bit rate mode                    : Constant
Bit rate                         : 224 Kbps
Channel(s)                       : 2 channels
Channel positions                : Front: L R
Sampling rate                    : 48.0 KHz
Bit depth                        : 16 bits
Compression mode                 : Lossy
Stream size                      : 143 MiB (11%)
Alignment                        : Aligned on interleaves
Interleave, duration             : 32 ms (0.80 video frame)
Interleave, preload duration     : 288 ms

